<?xml version="1.0" encoding="utf-8"?>
<!-- Generator: Adobe Illustrator 24.1.0, SVG Export Plug-In . SVG Version: 6.00 Build 0)  -->
<svg version="1.1" id="Calque_1" xmlns="http://www.w3.org/2000/svg" xmlns:xlink="http://www.w3.org/1999/xlink" x="0px" y="0px"
	 viewBox="0 0 562 427" style="enable-background:new 0 0 562 427;" xml:space="preserve">
<style type="text/css">
	.st0{fill:#BCA474;}
</style>
<g transform="translate(0.000000,427.000000) scale(0.100000,-0.100000)">
	<path class="st0" d="M2560,3610c0-6,5-19,12-29c17-28-5-49-55-53c-33-2-44-9-56-29c-13-24-13-33,3-87c19-63,16-112-8-112
		c-29,0-36,26-30,111c6,77,5,86-14,103c-13,11-28,16-38,12c-15-6-15-8-1-24c15-16,15-20-3-47c-24-36-26-78-4-96c24-19,44-65,44-98
		c0-50-40-142-81-185c-32-35-39-39-45-23c-4,11,0,25,10,36c19,21,20,67,2,99c-17,31-96,93-108,86c-5-4-7-17-4-31c11-40-2-44-53-16
		l-48,27l-33-20c-47-28-59-49-37-71c14-15,22-16,48-6c25,10,38,9,66-2c44-19,38-38-13-45l-39-5l25-17c13-10,32-18,42-18
		c9,0,29-10,43-23l26-22l-23-35c-24-36-34-41-170-75c-115-29-181-108-164-197c8-46,45-78,95-85c35-5,46-2,66,17c38,36,13,90-42,90
		c-13,0-32-6-43-12c-17-11-22-10-30,2c-14,22-12,34,11,64c35,45,88,65,192,72c87,6,99,5,132-15c42-24,93-27,121-7c11,9,30,12,46,9
		c20-4,29-1,34,11c8,20-19,42-61,51c-16,4-39,9-49,12c-44,12,20,27,110,25c80-2,95,1,125,21c41,28,44,51,7,55c-55,6-27,42,33,42
		c37,0,39,27,3,40c-40,15-18,33,33,27c40-4,45-2,54,20c19,51-33,74-82,37c-30-22-59-31-59-19c0,2,12,16,26,30c32,32,26,41-19,26
		c-36-12-67-61-67-105c0-36-53-101-102-124c-55-27-108-38-108-23c0,6,5,11,11,11s37,25,69,56c44,41,64,70,76,107c9,28,31,66,49,85
		c74,79,71,73,47,92c-19,16-20,19-6,39c11,15,26,21,53,21c41,0,67,20,57,45c-3,9-18,15-41,15c-47,0-45,14,5,29c52,15,72,43,58,82
		c-5,16-20,36-31,44C2603,3622,2560,3625,2560,3610z"/>
	<path class="st0" d="M2922,3598c-49-54-36-97,38-119c50-15,52-29,5-29c-23,0-38-6-41-15c-10-25,16-45,57-45c27,0,42-6,53-21
		c14-20,13-23-7-40c-21-17-21-18-5-36c63-65,85-97,101-141c13-37,34-65,83-111c36-34,64-65,61-68c-10-10-107,28-138,54
		c-35,30-59,73-59,106c0,34-40,89-73,100c-40,13-47-1-13-29c39-34,24-44-24-16c-46,26-73,28-90,7c-10-12-10-22-2-39
		c9-21,16-23,55-19c53,6,69-10,30-29c-32-15-33-32-1-36c50-6,68-13,68-27c0-8-12-15-27-17c-38-4-35-27,6-55c30-21,46-23,120-22
		c47,1,97-3,111-8c24-10,23-11-20-22c-73-19-90-29-90-52c0-19,4-21,33-16c20,3,40,0,52-9c27-20,78-17,120,7c33,20,46,21,132,16
		c104-7,159-29,196-78c25-35,15-74-16-64c-56,18-75,17-96-4c-26-26-27-45-1-71c56-56,170,8,170,95c0,90-85,160-227,186
		c-69,12-97,29-117,68c-14,26-14,30,2,44c9,8,36,23,60,32c50,20,54,33,10,37c-43,4-47,25-8,42c25,10,41,11,67,3c28-9,37-8,51,6
		c21,22,9,44-38,71c-32,19-32,19-76-2c-59-29-68-28-61,8c4,16,3,32-2,34c-5,3-32-12-60-35c-65-52-82-99-50-142c11-16,18-35,15-44
		c-6-14-12-11-37,13c-34,32-60,78-83,146c-19,53-8,103,29,138c31,29,32,68,4,104c-20,25-20,28-4,45c19,22,6,36-24,26
		c-33-10-43-50-30-117c14-68,2-112-29-106c-23,4-27,58-8,113c24,73,5,115-54,115c-47,0-70,22-52,51c19,29,14,39-16,39
		C2955,3620,2935,3611,2922,3598z"/>
	<path class="st0" d="M1402,2423c775-2,2041-2,2815,0c775,1,141,2-1407,2S628,2424,1402,2423z"/>
	<path class="st0" d="M1165,2160c-25-26-26-30-10-30c10,0,26,7,36,16c16,15,20,14,48-2c41-24,52-9,16,21
		C1216,2197,1200,2196,1165,2160z"/>
	<path class="st0" d="M1990,1992c0-228,4-242,69-242c43,0,52,6,44,26c-3,9-13,12-23,9s-25,2-34,10c-14,14-16,45-16,206
		c0,182-1,189-20,189S1990,2183,1990,1992z"/>
	<path class="st0" d="M2770,2160c0-23,4-30,20-30s20,7,20,30s-4,30-20,30S2770,2183,2770,2160z"/>
	<path class="st0" d="M3832,2155c-97-50-141-177-97-283c68-162,292-162,360,0c54,132-29,289-161,304C3894,2180,3876,2177,3832,2155z
		 M3980,2125c113-58,120-250,13-316c-113-70-242,25-231,170C3771,2101,3882,2176,3980,2125z"/>
	<path class="st0" d="M650,1960c0-203,1-210,20-210s20,7,20,100v100h125h125v-100c0-93,1-100,20-100s20,7,20,210s-1,210-20,210
		s-20-7-20-90v-90H815H690v90c0,83-1,90-20,90S650,2163,650,1960z"/>
	<path class="st0" d="M1450,2115c0-48-2-55-20-55c-11,0-20-7-20-15s9-15,20-15c19,0,20-7,20-123c0-107,2-126,18-140
		c33-30,112-20,112,14c0,16-4,17-26,9c-17-7-32-7-45,0c-17,10-19,22-19,125v115h35c24,0,35,5,35,15s-11,15-35,15h-35v55
		c0,48-2,55-20,55S1450,2163,1450,2115z"/>
	<path class="st0" d="M2310,1960c0-203,1-210,20-210s20,7,20,170c0,94,3,170,8,170c4-1,67-77,141-170c86-109,141-170,153-170
		c17,0,18,14,18,210c0,202-1,210-20,210s-20-8-22-172l-3-173l-138,173c-95,119-143,172-157,172C2311,2170,2310,2163,2310,1960z"/>
	<path class="st0" d="M4190,1960c0-203,1-210,20-210s20,7,20,170c0,94,3,170,8,170c4-1,67-77,141-170c86-109,141-170,153-170
		c17,0,18,14,18,210c0,202-1,210-20,210s-20-8-22-172l-3-173l-138,173c-95,119-143,172-157,172C4191,2170,4190,2163,4190,1960z"/>
	<path class="st0" d="M4660,1960v-210h140c133,0,140,1,140,20s-7,20-120,20h-120v80v80h100c82,0,100,3,100,15s-18,15-100,15h-100v80
		v80h120c100,0,120,3,120,15c0,13-22,15-140,15h-140V1960z"/>
	<path class="st0" d="M1166,2060c-120-36-143-216-37-287c45-30,122-31,169-3c37,23,71,88,72,135c0,54-40,117-90,143
		C1233,2071,1213,2074,1166,2060z M1279,2005c57-49,63-127,15-185c-68-80-194-24-194,85C1100,2005,1207,2065,1279,2005z"/>
	<path class="st0" d="M1704,2050c-107-53-114-218-12-280c58-35,159-22,198,25c10,12,10,19,2,27c-9,9-17,6-34-9c-13-12-36-27-52-33
		c-54-20-126,22-141,83l-7,27h136h137l-7,38c-10,58-36,95-84,120C1785,2075,1757,2076,1704,2050z M1815,2026c34-15,57-42,70-83
		c6-23,6-23-109-23c-127,0-131,2-102,59c14,27,66,60,94,61C1775,2040,1796,2034,1815,2026z"/>
	<path class="st0" d="M2986,2060c-88-27-133-145-87-230c28-53,74-80,136-80c52,0,113,28,123,57c8,26-28,25-59-1
		c-89-76-216,40-169,154c29,71,112,93,168,45c27-23,62-26,62-6c0,16-48,52-81,61C3040,2072,3026,2071,2986,2060z"/>
	<path class="st0" d="M3316,2060c-121-38-143-215-36-287c46-32,124-32,171,0c35,24,51,57,26,57c-8,0-22-9-32-20
		c-59-66-162-35-190,58l-6,22h135c135,0,136,0,136,23c0,33-41,108-70,129C3419,2063,3355,2072,3316,2060z M3441,2003
		c15-15,31-40,34-55l7-28h-117h-117l7,28c7,31,40,70,70,83C3358,2046,3412,2033,3441,2003z"/>
	<path class="st0" d="M2770,1905c0-148,1-155,20-155s20,7,20,155s-1,155-20,155S2770,2053,2770,1905z"/>
	<path class="st0" d="M1402,1503c775-2,2041-2,2815,0c775,1,141,2-1407,2S628,1504,1402,1503z"/>
	<path class="st0" d="M2280,1071c0-34,38-84,81-106c43-23,97-18,194,16c52,17,98,28,112,25c37-10,73-56,73-96c-1-45-20-68-102-120
		c-84-52-108-81-108-131c0-47,8-48,82-14c29,14,65,25,80,25c26,0,26,0,30-90c3-97,10-110,58-110c47,0,53,13,58,109c4,90,5,91,31,91
		c14,0,50-11,79-25c74-34,82-33,82,14c0,50-24,79-108,131c-37,23-75,52-84,64c-26,31-23,88,6,119c37,40,63,42,161,8
		c48-17,106-31,127-31c72,0,134,50,145,115c6,35,4,38-13,31c-41-17-100-18-196-6c-140,19-167,9-230-85c-26-38-52-70-59-70
		s-29,27-48,59c-56,91-75,102-179,97c-160-7-227-6-249,2C2282,1100,2280,1098,2280,1071z"/>
</g>
</svg>
